{
    "accessors" : [
        {
            "bufferView" : 0, 
            "componentType" : 5123, 
            "count" : 3756, 
            "max" : [
                1431
            ], 
            "min" : [
                0
            ], 
            "type" : "SCALAR"
        }, 
        {
            "bufferView" : 1, 
            "componentType" : 5126, 
            "count" : 1432, 
            "max" : [
                0.8955107927322388, 
                0.05000000074505806, 
                0.007739937864243984
            ], 
            "min" : [
                0.5332817435264587, 
                -0.05000000074505806, 
                -0.3947368264198303
            ], 
            "type" : "VEC3"
        }, 
        {
            "bufferView" : 2, 
            "componentType" : 5126, 
            "count" : 1432, 
            "max" : [
                1.0, 
                1.0, 
                1.0
            ], 
            "min" : [
                -1.0, 
                -1.0, 
                -1.0
            ], 
            "type" : "VEC3"
        }, 
        {
            "bufferView" : 3, 
            "componentType" : 5123, 
            "count" : 12072, 
            "max" : [
                4697
            ], 
            "min" : [
                0
            ], 
            "type" : "SCALAR"
        }, 
        {
            "bufferView" : 4, 
            "componentType" : 5126, 
            "count" : 4698, 
            "max" : [
                1.8715169429779053, 
                0.05000000074505806, 
                0.16253869235515594
            ], 
            "min" : [
                0.042569659650325775, 
                -0.05000000074505806, 
                -0.5495355725288391
            ], 
            "type" : "VEC3"
        }, 
        {
            "bufferView" : 5, 
            "componentType" : 5126, 
            "count" : 4698, 
            "max" : [
                1.0, 
                1.0, 
                0.999969482421875
            ], 
            "min" : [
                -1.0, 
                -1.0, 
                -1.0
            ], 
            "type" : "VEC3"
        }, 
        {
            "bufferView" : 6, 
            "componentType" : 5126, 
            "count" : 3, 
            "max" : [
                1.625
            ], 
            "min" : [
                0.0
            ], 
            "type" : "SCALAR"
        }, 
        {
            "bufferView" : 7, 
            "componentType" : 5126, 
            "count" : 9, 
            "max" : [
                1.3990129232406616, 
                0.6000000238418579, 
                -0.0
            ], 
            "min" : [
                0.0, 
                0.0, 
                -0.0
            ], 
            "type" : "VEC3"
        }, 
        {
            "bufferView" : 8, 
            "componentType" : 5126, 
            "count" : 40, 
            "max" : [
                1.625
            ], 
            "min" : [
                0.0
            ], 
            "type" : "SCALAR"
        }, 
        {
            "bufferView" : 9, 
            "componentType" : 5126, 
            "count" : 40, 
            "max" : [
                0.7071067690849304, 
                0.0, 
                -0.0, 
                0.7071067690849304
            ], 
            "min" : [
                0.7071067690849304, 
                0.0, 
                -0.0, 
                0.7071067690849304
            ], 
            "type" : "VEC4"
        }, 
        {
            "bufferView" : 10, 
            "componentType" : 5126, 
            "count" : 3, 
            "max" : [
                1.625
            ], 
            "min" : [
                0.0
            ], 
            "type" : "SCALAR"
        }, 
        {
            "bufferView" : 11, 
            "componentType" : 5126, 
            "count" : 9, 
            "max" : [
                1.0, 
                1.0, 
                1.0
            ], 
            "min" : [
                0.0, 
                0.0, 
                0.0
            ], 
            "type" : "VEC3"
        }
    ], 
    "animations" : [
        {
            "channels" : [
                {
                    "sampler" : 0, 
                    "target" : {
                        "node" : 1, 
                        "path" : "translation"
                    }
                }, 
                {
                    "sampler" : 1, 
                    "target" : {
                        "node" : 1, 
                        "path" : "rotation"
                    }
                }, 
                {
                    "sampler" : 2, 
                    "target" : {
                        "node" : 1, 
                        "path" : "scale"
                    }
                }
            ], 
            "samplers" : [
                {
                    "input" : 6, 
                    "interpolation" : "CUBICSPLINE", 
                    "output" : 7
                }, 
                {
                    "input" : 8, 
                    "interpolation" : "LINEAR", 
                    "output" : 9
                }, 
                {
                    "input" : 10, 
                    "interpolation" : "CUBICSPLINE", 
                    "output" : 11
                }
            ]
        }
    ], 
    "asset" : {
        "generator" : "Khronos Blender glTF 2.0 exporter", 
        "version" : "2.0"
    }, 
    "bufferViews" : [
        {
            "buffer" : 0, 
            "byteLength" : 7512, 
            "byteOffset" : 0, 
            "target" : 34963
        }, 
        {
            "buffer" : 0, 
            "byteLength" : 17184, 
            "byteOffset" : 7512, 
            "target" : 34962
        }, 
        {
            "buffer" : 0, 
            "byteLength" : 17184, 
            "byteOffset" : 24696, 
            "target" : 34962
        }, 
        {
            "buffer" : 0, 
            "byteLength" : 24144, 
            "byteOffset" : 41880, 
            "target" : 34963
        }, 
        {
            "buffer" : 0, 
            "byteLength" : 56376, 
            "byteOffset" : 66024, 
            "target" : 34962
        }, 
        {
            "buffer" : 0, 
            "byteLength" : 56376, 
            "byteOffset" : 122400, 
            "target" : 34962
        }, 
        {
            "buffer" : 0, 
            "byteLength" : 12, 
            "byteOffset" : 178776
        }, 
        {
            "buffer" : 0, 
            "byteLength" : 108, 
            "byteOffset" : 178788
        }, 
        {
            "buffer" : 0, 
            "byteLength" : 160, 
            "byteOffset" : 178896
        }, 
        {
            "buffer" : 0, 
            "byteLength" : 640, 
            "byteOffset" : 179056
        }, 
        {
            "buffer" : 0, 
            "byteLength" : 12, 
            "byteOffset" : 179696
        }, 
        {
            "buffer" : 0, 
            "byteLength" : 108, 
            "byteOffset" : 179708
        }
    ], 
    "buffers" : [
        {
            "byteLength" : 179816, 
            "uri" : "test2.bin"
        }
    ], 
    "materials" : [
        {
            "name" : "Material.002", 
            "pbrMetallicRoughness" : {
                "baseColorFactor" : [
                    0.6400000190734865, 
                    0.6400000190734865, 
                    0.6400000190734865, 
                    1.0
                ], 
                "metallicFactor" : 0.0
            }
        }, 
        {
            "name" : "Material.003", 
            "pbrMetallicRoughness" : {
                "baseColorFactor" : [
                    0.6400000190734865, 
                    0.6400000190734865, 
                    0.6400000190734865, 
                    1.0
                ], 
                "metallicFactor" : 0.0
            }
        }
    ], 
    "meshes" : [
        {
            "name" : "CUText.001", 
            "primitives" : [
                {
                    "attributes" : {
                        "NORMAL" : 2, 
                        "POSITION" : 1
                    }, 
                    "indices" : 0, 
                    "material" : 1
                }
            ]
        }, 
        {
            "name" : "CUText", 
            "primitives" : [
                {
                    "attributes" : {
                        "NORMAL" : 5, 
                        "POSITION" : 4
                    }, 
                    "indices" : 3, 
                    "material" : 0
                }
            ]
        }
    ], 
    "nodes" : [
        {
            "mesh" : 1, 
            "name" : "Text", 
            "rotation" : [
                0.7071068286895752, 
                0.0, 
                -0.0, 
                0.7071068286895752
            ]
        }, 
        {
            "mesh" : 0, 
            "name" : "Text.001", 
            "rotation" : [
                0.7071068286895752, 
                0.0, 
                -0.0, 
                0.7071068286895752
            ]
        }
    ], 
    "scene" : 0, 
    "scenes" : [
        {
            "name" : "Scene", 
            "nodes" : [
                1, 
                0
            ]
        }
    ]
}
